<?xml version="1.0" encoding="UTF-8"?> <svg xmlns="http://www.w3.org/2000/svg" width="48" height="48" viewBox="0 0 48 48" fill="none"> <circle cx="24" cy="24" r="24" fill="white" fill-opacity="0.04"></circle> <path fill-rule="evenodd" clip-rule="evenodd" d="M21.9998 15.0007C20.3221 15.0007 18.9998 16.4299 18.9998 18.0007V19.9988H16.9969C15.8919 19.9988 14.9961 20.8946 14.9961 21.9996V22.4662C15.0662 22.5105 15.1453 22.5594 15.233 22.612C15.6686 22.8733 16.3158 23.2268 17.1437 23.5816C18.8015 24.2921 21.1664 25.0007 23.9998 25.0007C26.8332 25.0007 29.198 24.2921 30.8558 23.5816C31.6837 23.2268 32.331 22.8733 32.7665 22.612C32.8543 22.5593 32.9334 22.5104 33.0036 22.4661V21.9996C33.0036 20.8946 32.1078 19.9988 31.0028 19.9988H28.9998V18.0007C28.9998 16.4299 27.6774 15.0007 25.9998 15.0007H21.9998ZM26.9998 19.9988V18.0007C26.9998 17.4924 26.5312 17.0007 25.9998 17.0007H21.9998C21.4683 17.0007 20.9998 17.4924 20.9998 18.0007V19.9988H26.9998Z" fill="#0AD26C"></path> <path d="M31.0028 33.0042H16.9969C15.8919 33.0042 14.9961 32.1084 14.9961 31.0034V24.7722C15.3848 24.9772 15.8399 25.1988 16.3558 25.4199C18.198 26.2094 20.8332 27.0007 23.9998 27.0007C27.1664 27.0007 29.8015 26.2094 31.6437 25.4199C32.1597 25.1987 32.6148 24.9772 33.0036 24.7721V31.0034C33.0036 32.1084 32.1078 33.0042 31.0028 33.0042Z" fill="#0AD26C"></path> </svg> 