<?xml version="1.0" encoding="UTF-8"?> <svg xmlns="http://www.w3.org/2000/svg" width="48" height="48" viewBox="0 0 48 48" fill="none"> <circle cx="24" cy="24" r="24" fill="white" fill-opacity="0.04"></circle> <path d="M31.7143 26.2857V31.7143C31.7143 31.9465 31.6295 32.1474 31.4598 32.317C31.2902 32.4866 31.0893 32.5715 30.8571 32.5715H25.7143V27.4286H22.2857V32.5715H17.1428C16.9107 32.5715 16.7098 32.4866 16.5402 32.317C16.3705 32.1474 16.2857 31.9465 16.2857 31.7143V26.2857C16.2857 26.2768 16.2879 26.2634 16.2924 26.2456C16.2969 26.2277 16.2991 26.2143 16.2991 26.2054L24 19.8572L31.7009 26.2054C31.7098 26.2232 31.7143 26.25 31.7143 26.2857Z" fill="#0AD26C"></path> <path d="M33.7009 23.3616L32.8705 24.3527C32.7991 24.4331 32.7053 24.4822 32.5893 24.5H32.5491C32.433 24.5 32.3393 24.4688 32.2678 24.4063L24 17.6786L15.7321 24.4063C15.625 24.4777 15.5178 24.509 15.4107 24.5C15.2946 24.4822 15.2009 24.4331 15.1295 24.3527L14.2991 23.3616C14.2277 23.2724 14.1964 23.1674 14.2053 23.0469C14.2143 22.9264 14.2634 22.8304 14.3527 22.759L22.9821 15.7366C23.2678 15.5045 23.6071 15.3884 24 15.3884C24.3928 15.3884 24.7321 15.5045 25.0178 15.7366L28.2857 18.4688L31.7143 21.3215L33.6473 22.759C33.7366 22.8304 33.7857 22.9264 33.7946 23.0469C33.8036 23.1674 33.7723 23.2724 33.7009 23.3616Z" fill="#0AD26C"></path> </svg> 