<?xml version="1.0" encoding="UTF-8"?> <!-- Creator: CorelDRAW --> <svg xmlns="http://www.w3.org/2000/svg" xmlns:xlink="http://www.w3.org/1999/xlink" xmlns:xodm="http://www.corel.com/coreldraw/odm/2003" xml:space="preserve" width="183.793mm" height="62.5mm" style="shape-rendering:geometricPrecision; text-rendering:geometricPrecision; image-rendering:optimizeQuality; fill-rule:evenodd; clip-rule:evenodd" viewBox="0 0 8343.92 2837.41"> <defs> <style type="text/css"> <![CDATA[ .fil0 {fill:#38DD4F;fill-rule:nonzero} .fil1 {fill:white;fill-rule:nonzero} ]]> </style> </defs> <g id="Layer_x0020_1"> <metadata id="CorelCorpID_0Corel-Layer"></metadata> <g id="_105553172971168"> <path class="fil0" d="M2256.65 1906.59l501.55 930.82 -708.89 0c-279.38,-518.47 207.33,-930.82 207.34,-930.82zm1533.69 -1906.59l0 0c-366.59,0 -785.21,50.28 -1486.26,732.61 -78.19,76.1 -246.9,240.3 -446.07,434.16l-322.91 -599.28 -708.92 0 566.81 1051.89c-351.81,342.41 -665.81,648.02 -665.81,648.02 -371.75,361.82 -526.5,480.25 -718.14,545.2 -2.94,8.09 -5.97,16.38 -9.04,24.82l197.67 0c216.24,0 828.56,0 1541.02,-712.46 567.49,-567.48 1029.53,-1029.54 1557.46,-1557.47 365.34,-365.33 636.3,-496.76 768.57,-543.09l8.88 -24.39 -283.26 0z"></path> <g> <polygon class="fil1" points="3040.81,2837.41 3763.71,851.22 5377.49,851.22 5196.76,1347.77 4203.82,1347.77 4057.16,1750.65 4911.08,1750.65 4739.62,2221.72 3885.56,2221.72 3661.46,2837.41 "></polygon> <polygon class="fil1" points="4938.32,2837.41 5661.23,851.22 6281.53,851.22 5558.6,2837.41 "></polygon> <polygon class="fil1" points="6384.58,1347.77 6565.31,851.22 8343.92,851.22 8163.19,1347.77 7608.33,1347.77 7066.13,2837.41 6445.47,2837.41 6987.64,1347.77 "></polygon> </g> </g> </g> </svg> 