<?xml version="1.0" encoding="UTF-8"?> <svg xmlns="http://www.w3.org/2000/svg" width="912" height="460" viewBox="0 0 912 460" fill="none"> <path d="M582.322 216.176C587.299 216.176 591.818 218.205 595.079 221.463C595.136 221.549 595.222 221.606 595.307 221.692C598.454 224.949 600.37 229.35 600.37 234.208C600.37 239.18 598.339 243.696 595.079 246.953C595.021 247.039 594.907 247.096 594.85 247.153C591.589 250.297 587.184 252.24 582.293 252.24C577.316 252.24 572.797 250.211 569.536 246.953C569.479 246.896 569.393 246.81 569.336 246.725C566.189 243.467 564.273 239.066 564.273 234.208C564.273 229.236 566.304 224.721 569.536 221.463C569.622 221.377 569.679 221.32 569.765 221.263C573.054 218.12 577.459 216.176 582.322 216.176ZM589.93 226.578C587.985 224.635 585.296 223.435 582.322 223.435C579.433 223.435 576.801 224.578 574.856 226.435L574.713 226.607C572.768 228.55 571.567 231.236 571.567 234.208C571.567 237.094 572.711 239.723 574.541 241.667L574.713 241.838C576.687 243.781 579.347 245.01 582.322 245.01C585.211 245.01 587.871 243.867 589.816 242.01L589.959 241.838C591.932 239.895 593.134 237.18 593.134 234.208C593.134 231.322 591.989 228.693 590.13 226.75L589.93 226.578ZM582.322 201.774C591.274 201.774 599.426 205.403 605.262 211.261C605.319 211.318 605.405 211.404 605.49 211.49C611.24 217.348 614.758 225.349 614.758 234.18C614.758 243.124 611.125 251.211 605.262 257.098C599.398 262.956 591.274 266.585 582.322 266.585C573.397 266.585 565.274 262.956 559.41 257.098H559.382C553.518 251.24 549.885 243.124 549.885 234.18C549.885 225.235 553.518 217.119 559.382 211.261C559.439 211.175 559.525 211.118 559.611 211.061C565.446 205.317 573.483 201.774 582.322 201.774ZM600.113 216.405C595.565 211.861 589.272 209.032 582.322 209.032C575.457 209.032 569.221 211.776 564.702 216.233L564.53 216.405C559.982 220.949 557.151 227.235 557.151 234.208C557.151 241.152 559.982 247.439 564.53 252.011H564.502C569.078 256.555 575.371 259.356 582.322 259.356C589.272 259.356 595.594 256.526 600.113 251.983C604.689 247.439 607.521 241.124 607.521 234.18C607.521 227.321 604.747 221.091 600.313 216.548C600.256 216.519 600.199 216.462 600.113 216.405ZM582.322 172.997C599.226 172.997 614.529 179.856 625.627 190.915C636.697 201.974 643.561 217.291 643.561 234.18C643.561 251.068 636.697 266.385 625.627 277.444C614.529 288.504 599.226 295.362 582.322 295.362C565.417 295.362 550.086 288.504 539.045 277.444C527.947 266.385 521.082 251.068 521.082 234.18C521.082 217.291 527.947 201.974 539.045 190.915C550.057 179.856 565.417 172.997 582.322 172.997ZM620.479 196.058C610.696 186.285 597.224 180.256 582.293 180.256C567.391 180.256 553.89 186.285 544.136 196.058C534.354 205.803 528.318 219.291 528.318 234.208C528.318 249.097 534.354 262.585 544.136 272.358C553.89 282.131 567.391 288.161 582.293 288.161C597.195 288.161 610.696 282.131 620.479 272.358C630.261 262.613 636.296 249.125 636.296 234.208C636.296 219.291 630.261 205.803 620.479 196.058ZM656.976 151.336C655.518 149.993 655.375 147.707 656.719 146.221C658.063 144.735 660.352 144.621 661.868 145.964C674.138 157.023 684.121 170.625 690.929 185.942C697.507 200.688 701.197 217.034 701.197 234.18C701.197 266.957 687.897 296.648 666.358 318.138C644.849 339.627 615.13 352.915 582.322 352.915C549.513 352.915 519.795 339.627 498.285 318.138C476.775 296.648 463.475 266.957 463.475 234.18C463.475 208.375 471.741 184.456 485.757 164.967C502.289 141.992 527.26 125.274 554.576 118.73C556.521 118.273 558.466 119.473 558.924 121.416C559.439 123.36 558.238 125.303 556.293 125.76C530.235 131.99 507.552 147.107 491.649 169.196C478.491 187.485 470.74 209.918 470.74 234.18C470.74 264.957 483.239 292.847 503.462 313.022C523.627 333.197 551.544 345.685 582.35 345.685C613.185 345.685 641.073 333.197 661.267 313.022C681.461 292.847 693.961 264.985 693.961 234.18C693.961 218.034 690.528 202.717 684.378 188.886C677.943 174.54 668.532 161.767 656.976 151.336ZM582.322 187.4C595.25 187.4 606.949 192.629 615.473 201.116C623.94 209.575 629.174 221.292 629.174 234.208C629.174 247.125 623.94 258.841 615.473 267.3C606.978 275.787 595.279 281.017 582.322 281.017C569.393 281.017 557.665 275.787 549.199 267.3C540.732 258.841 535.469 247.125 535.469 234.208C535.469 221.292 540.732 209.575 549.199 201.116C557.665 192.658 569.393 187.4 582.322 187.4ZM610.324 206.232C603.145 199.088 593.248 194.658 582.322 194.658C571.395 194.658 561.498 199.088 554.348 206.232C547.168 213.376 542.763 223.292 542.763 234.208C542.763 245.124 547.197 255.012 554.348 262.185C561.498 269.329 571.424 273.758 582.322 273.758C593.277 273.758 603.145 269.329 610.324 262.185C617.504 255.04 621.937 245.124 621.937 234.208C621.937 223.263 617.475 213.376 610.324 206.232ZM582.322 158.595C603.231 158.595 622.137 167.053 635.839 180.741C649.511 194.43 657.978 213.319 657.978 234.208C657.978 255.069 649.511 273.987 635.839 287.646C622.137 301.335 603.202 309.793 582.322 309.793C561.47 309.793 542.506 301.335 528.805 287.646C515.104 273.987 506.666 255.069 506.666 234.208C506.666 213.347 515.132 194.43 528.805 180.741C542.506 167.053 561.441 158.595 582.322 158.595ZM630.69 185.857C618.305 173.483 601.2 165.853 582.293 165.853C563.415 165.853 546.31 173.511 533.925 185.857C521.539 198.23 513.902 215.319 513.902 234.18C513.902 253.04 521.568 270.129 533.925 282.503C546.31 294.876 563.443 302.506 582.293 302.506C601.2 302.506 618.305 294.848 630.69 282.503C643.075 270.157 650.741 253.04 650.741 234.18C650.741 215.319 643.075 198.23 630.69 185.857ZM608.036 155.508C606.12 154.88 605.09 152.851 605.691 150.936C606.32 149.021 608.351 147.993 610.267 148.621C628.516 154.565 644.219 166.196 655.26 181.399C666.015 196.23 672.365 214.462 672.365 234.18C672.365 259.041 662.297 281.531 645.993 297.82C629.689 314.108 607.149 324.167 582.293 324.167C557.437 324.167 534.897 314.108 518.622 297.82C502.289 281.531 492.221 259.041 492.221 234.18C492.221 213.947 498.943 195.23 510.241 180.198C521.825 164.796 538.244 153.222 557.236 147.735C559.153 147.192 561.155 148.278 561.727 150.193C562.271 152.108 561.184 154.108 559.267 154.68C541.791 159.738 526.688 170.368 516.048 184.542C505.636 198.345 499.515 215.548 499.515 234.18C499.515 257.041 508.782 277.702 523.799 292.676C538.759 307.65 559.467 316.909 582.322 316.909C605.176 316.909 625.913 307.65 640.873 292.676C655.89 277.702 665.128 257.012 665.128 234.18C665.128 216.033 659.293 199.288 649.425 185.657C639.242 171.683 624.798 160.995 608.036 155.508ZM566.904 152.879C564.959 153.251 563.071 151.936 562.671 149.993C562.299 148.021 563.615 146.135 565.56 145.764C566.189 145.649 566.704 145.535 567.219 145.478C567.848 145.364 568.449 145.278 568.849 145.221C570.852 144.935 572.682 146.307 572.997 148.278C573.254 150.25 571.91 152.108 569.936 152.393C569.307 152.479 568.849 152.565 568.42 152.622C567.877 152.708 567.391 152.794 566.904 152.879ZM566.103 131.075C568.106 130.761 569.936 132.133 570.28 134.104C570.566 136.076 569.221 137.934 567.248 138.219C543.821 141.849 523.141 153.879 508.382 171.111C493.851 188.086 485.07 210.118 485.07 234.208C485.07 261.042 495.968 285.332 513.559 302.878C531.15 320.452 555.463 331.34 582.293 331.34C609.152 331.34 633.436 320.481 651.056 302.878C668.647 285.303 679.516 261.013 679.516 234.208C679.516 219.377 676.169 205.346 670.277 192.801C664.099 179.741 655.146 168.282 644.105 159.223C642.56 157.966 642.331 155.68 643.619 154.137C644.877 152.593 647.165 152.365 648.71 153.651C660.552 163.395 670.22 175.712 676.856 189.743C683.234 203.26 686.81 218.348 686.81 234.237C686.81 263.07 675.111 289.161 656.176 308.05C637.269 326.939 611.154 338.627 582.293 338.627C553.461 338.627 527.346 326.939 508.41 308.05C489.504 289.161 477.805 263.07 477.805 234.237C477.805 208.375 487.215 184.685 502.833 166.425C518.736 147.878 540.961 134.99 566.103 131.075ZM666.988 140.906C665.529 139.563 665.386 137.276 666.759 135.79C668.103 134.304 670.392 134.19 671.85 135.562C685.551 147.964 696.649 163.195 704.229 180.313C711.523 196.801 715.585 215.033 715.585 234.208C715.585 270.986 700.682 304.278 676.541 328.368C652.428 352.458 619.106 367.375 582.293 367.375C545.509 367.375 512.158 352.458 488.045 328.368C463.932 304.278 449.001 270.986 449.001 234.208C449.001 228.093 449.43 222.006 450.26 216.033C451.089 209.947 452.319 204.003 453.95 198.23C454.493 196.316 456.495 195.173 458.412 195.715C460.357 196.258 461.472 198.259 460.957 200.173C459.413 205.66 458.24 211.261 457.468 216.976C456.724 222.549 456.324 228.293 456.324 234.18C456.324 268.957 470.425 300.449 493.222 323.224C516.019 346 547.54 360.116 582.35 360.116C617.16 360.116 648.681 346.028 671.507 323.224C694.304 300.449 708.405 268.957 708.405 234.18C708.405 216.033 704.572 198.802 697.65 183.228C690.414 167.053 679.945 152.651 666.988 140.906ZM465.248 187.457C464.504 189.314 462.388 190.2 460.557 189.457C458.698 188.714 457.811 186.6 458.555 184.742C460.786 179.141 463.389 173.74 466.335 168.568C469.31 163.31 472.628 158.309 476.26 153.536C477.49 151.936 479.75 151.65 481.352 152.851C482.925 154.051 483.211 156.337 482.009 157.937C478.577 162.452 475.431 167.196 472.599 172.14C469.824 177.055 467.365 182.17 465.248 187.457ZM486.987 151.822C485.642 153.336 483.382 153.508 481.866 152.193C480.379 150.879 480.208 148.593 481.495 147.078C483.84 144.392 486.271 141.792 488.789 139.305C491.363 136.791 494.023 134.362 496.74 132.104C498.285 130.818 500.573 131.018 501.832 132.561C503.09 134.104 502.919 136.391 501.374 137.676C498.743 139.877 496.254 142.134 493.851 144.478C491.477 146.821 489.16 149.279 486.987 151.822ZM635.152 104.156C633.293 103.413 632.406 101.299 633.15 99.4413C633.894 97.5839 636.01 96.698 637.869 97.441C640.158 98.384 642.532 99.4128 645.02 100.584C647.394 101.699 649.711 102.87 651.999 104.07C653.773 105.013 654.431 107.214 653.487 108.957C652.543 110.729 650.34 111.386 648.596 110.443C646.422 109.271 644.191 108.157 641.96 107.128C639.843 106.128 637.555 105.128 635.152 104.156ZM660.752 117.759C659.093 116.644 658.664 114.387 659.751 112.758C660.867 111.1 663.126 110.643 664.785 111.758C705.144 138.934 730.03 185.657 730.03 234.208C730.03 274.958 713.497 311.851 686.781 338.57C660.037 365.26 623.139 381.806 582.322 381.806C541.533 381.806 504.606 365.289 477.862 338.57C451.146 311.879 434.585 274.987 434.585 234.208C434.585 222.406 436.015 210.89 438.647 199.802C441.364 188.4 445.397 177.512 450.574 167.368C451.49 165.596 453.664 164.881 455.466 165.767C457.239 166.682 457.954 168.854 457.039 170.654C452.09 180.37 448.257 190.686 445.655 201.459C443.166 211.918 441.822 222.892 441.822 234.18C441.822 272.929 457.525 308.021 482.982 333.397C508.382 358.802 543.507 374.491 582.264 374.491C621.079 374.491 656.176 358.773 681.575 333.397C706.975 308.021 722.736 272.929 722.736 234.18C722.764 187.143 699.824 144.078 660.752 117.759ZM461.415 162.795C460.385 164.51 458.183 165.081 456.438 164.081C454.722 163.052 454.15 160.852 455.151 159.109C455.837 157.937 456.61 156.708 457.439 155.394C458.297 154.051 459.07 152.822 459.813 151.736C460.957 150.079 463.188 149.65 464.847 150.765C466.506 151.879 466.936 154.137 465.82 155.794C464.962 157.051 464.218 158.194 463.56 159.252C462.874 160.338 462.13 161.509 461.415 162.795ZM528.461 104.556C526.631 105.328 524.486 104.442 523.77 102.584C522.998 100.727 523.856 98.6126 525.715 97.8411C527.26 97.2124 528.919 96.5551 530.75 95.8693C532.409 95.2692 534.096 94.6691 535.841 94.0689C537.7 93.4403 539.788 94.469 540.418 96.3551C541.047 98.2411 539.989 100.298 538.129 100.927C536.528 101.47 534.926 102.013 533.267 102.642C531.751 103.213 530.178 103.87 528.461 104.556ZM654.431 97.2409C652.657 96.2979 651.971 94.1261 652.915 92.3543C653.859 90.5826 656.032 89.8968 657.777 90.8398L659.522 91.7543L661.21 92.6973C662.955 93.6689 663.584 95.8693 662.583 97.6124C661.639 99.3556 659.436 99.9843 657.691 99.0127L654.431 97.2409ZM687.067 120.245C685.58 118.902 685.494 116.587 686.838 115.13C688.211 113.672 690.5 113.558 691.987 114.901C708.405 129.989 721.706 148.421 730.83 169.111C739.612 189.029 744.446 211.061 744.446 234.18C744.446 278.902 726.311 319.395 696.964 348.714C667.617 378.034 627.115 396.152 582.322 396.152C537.557 396.152 497.026 378.034 467.679 348.714C438.361 319.424 420.198 278.93 420.198 234.18C419.912 211.261 425.89 184.999 435.786 164.881C436.616 163.081 438.761 162.281 440.592 163.138C442.394 163.995 443.166 166.139 442.337 167.939C432.325 189.514 427.549 210.747 427.463 234.18C427.463 276.902 444.796 315.594 472.828 343.571C500.859 371.547 539.588 388.893 582.322 388.893C625.112 388.893 663.813 371.576 691.815 343.571C719.818 315.566 737.18 276.902 737.18 234.18C737.18 212.061 732.518 191.029 724.166 171.997C715.499 152.251 702.799 134.647 687.067 120.245ZM512.787 95.9264C511.013 96.8123 508.811 96.0979 507.924 94.3262C507.037 92.5544 507.753 90.354 509.526 89.4681C511.671 88.3822 513.874 87.3534 516.019 86.3818L516.219 86.2961C518.279 85.3817 520.395 84.4672 522.598 83.6099C524.457 82.8669 526.574 83.7814 527.26 85.6389C528.004 87.4963 527.117 89.5824 525.258 90.3254C523.227 91.1256 521.196 91.9829 519.165 92.8973L519.022 92.983C516.877 93.9261 514.818 94.8977 512.787 95.9264ZM670.506 89.811C668.818 88.7537 668.303 86.5247 669.333 84.8387C670.391 83.1527 672.622 82.6097 674.31 83.6671L675.569 84.4386L675.597 84.4672L676.827 85.2388C678.515 86.2961 679.001 88.5251 677.971 90.2397C676.913 91.9257 674.682 92.4401 672.966 91.3827L671.707 90.6112L670.506 89.811ZM706.289 119.073C704.916 117.616 705.002 115.33 706.46 113.958C707.948 112.586 710.207 112.672 711.58 114.129C726.511 130.161 738.496 148.993 746.648 169.739C754.514 189.714 758.833 211.461 758.833 234.208C758.833 262.699 752.054 289.647 740.012 313.48C727.541 338.198 709.378 359.602 687.296 375.977C685.694 377.177 683.435 376.834 682.233 375.205C681.06 373.605 681.375 371.347 682.977 370.147C704.201 354.458 721.62 333.912 733.576 310.193C745.075 287.361 751.596 261.556 751.596 234.208C751.596 212.376 747.42 191.515 739.926 172.397C732.089 152.479 720.59 134.447 706.289 119.073ZM666.072 381.177C667.788 380.206 670.02 380.806 670.992 382.549C671.993 384.292 671.393 386.493 669.648 387.493C656.547 394.951 642.446 400.781 627.544 404.725C613.07 408.554 597.91 410.583 582.322 410.583C533.581 410.583 489.446 390.836 457.496 358.916C425.546 326.996 405.781 282.903 405.781 234.208C405.781 230.665 405.896 227.035 406.125 223.378C406.353 219.663 406.697 216.033 407.126 212.547C407.355 210.575 409.157 209.146 411.159 209.375C413.132 209.604 414.563 211.433 414.334 213.404C413.905 216.919 413.562 220.377 413.361 223.806C413.161 227.15 413.047 230.636 413.047 234.208C413.047 280.902 431.982 323.196 462.645 353.773C493.279 384.378 535.584 403.296 582.322 403.296C597.338 403.296 611.898 401.353 625.713 397.695C639.986 393.923 653.544 388.322 666.072 381.177ZM510.27 81.1238C508.468 81.9811 506.294 81.2095 505.436 79.4092C504.578 77.6089 505.378 75.437 507.18 74.5797C508.754 73.8367 510.384 73.0937 512.072 72.3793C513.645 71.6935 515.304 71.0077 517.077 70.3218C518.936 69.5788 521.053 70.4933 521.768 72.3508C522.455 74.2082 521.597 76.2943 519.737 77.0373C518.25 77.6374 516.648 78.2947 514.961 79.0377C513.445 79.6664 511.871 80.3808 510.27 81.1238ZM718.302 110.843C716.958 109.357 717.072 107.071 718.56 105.728C720.018 104.385 722.335 104.499 723.68 105.956C739.354 123.188 751.94 143.335 760.492 165.481C768.759 186.828 773.278 210.004 773.278 234.18C773.278 236.609 773.221 239.209 773.106 241.981C772.992 244.724 772.849 247.268 772.649 249.697C772.506 251.697 770.761 253.183 768.787 253.04C766.785 252.869 765.297 251.154 765.44 249.154C765.669 246.553 765.812 244.067 765.898 241.724C766.013 239.409 766.07 236.923 766.07 234.208C766.07 210.89 761.722 188.6 753.799 168.111C745.533 146.821 733.405 127.446 718.302 110.843ZM757.718 288.789C758.318 286.875 760.349 285.817 762.266 286.418C764.182 287.018 765.24 289.047 764.64 290.961C759.548 307.45 752.226 322.967 743.044 337.198C733.748 351.658 722.535 364.775 709.807 376.205C708.32 377.548 706.031 377.434 704.715 375.948C703.342 374.462 703.486 372.176 704.973 370.833C717.244 359.831 727.999 347.2 736.952 333.312C745.762 319.566 752.798 304.621 757.718 288.789ZM670.992 394.923C672.766 393.951 674.968 394.608 675.969 396.352C676.913 398.095 676.284 400.295 674.51 401.267C660.638 408.925 645.707 414.898 629.946 418.956C614.701 422.871 598.711 424.957 582.293 424.957C529.577 424.957 481.838 403.61 447.314 369.09C412.732 334.569 391.365 286.875 391.365 234.208C391.365 232.008 391.422 229.579 391.508 226.95C392.481 200.831 399.632 172.683 411.331 149.221C412.217 147.421 414.362 146.707 416.193 147.593C417.966 148.478 418.71 150.65 417.823 152.451C405.839 176.426 399.717 200.402 398.716 227.178C398.659 229.293 398.602 231.636 398.602 234.18C398.602 284.846 419.168 330.74 452.405 363.946C485.642 397.152 531.579 417.698 582.293 417.698C598.196 417.698 613.556 415.698 628.144 411.954C643.275 408.068 657.663 402.296 670.992 394.923ZM729.171 101.384C727.827 99.8986 727.97 97.6124 729.4 96.2693C730.888 94.9262 733.204 95.0405 734.549 96.5265C751.339 115.072 764.84 136.705 773.993 160.452C782.831 183.37 787.665 208.232 787.665 234.208C787.665 234.437 787.665 234.98 787.637 235.951V236.751C787.608 238.752 785.978 240.352 783.976 240.324C781.973 240.295 780.4 238.666 780.4 236.666L780.429 235.866V235.837C780.429 235.694 780.429 235.551 780.429 234.208C780.429 209.118 775.738 185.114 767.243 163.081C758.404 140.134 745.39 119.273 729.171 101.384ZM759.777 322.195C760.664 320.395 762.838 319.681 764.64 320.567C766.442 321.452 767.185 323.624 766.27 325.396C760.578 336.855 753.828 347.686 746.219 357.773C738.525 367.918 729.944 377.348 720.505 385.921C719.017 387.264 716.729 387.15 715.385 385.693C714.04 384.207 714.155 381.92 715.642 380.577C724.709 372.319 733.033 363.231 740.441 353.43C747.792 343.656 754.285 333.197 759.777 322.195ZM667.989 412.669C669.791 411.812 671.965 412.583 672.823 414.355C673.681 416.155 672.937 418.327 671.135 419.184C666.358 421.47 661.524 423.585 656.605 425.471C651.656 427.386 646.622 429.129 641.588 430.644C639.671 431.215 637.641 430.129 637.097 428.215C636.525 426.3 637.612 424.271 639.528 423.699C644.477 422.213 649.311 420.527 654.03 418.727C658.778 416.898 663.469 414.869 667.989 412.669ZM626.542 427.157C628.487 426.728 630.432 427.957 630.89 429.9C631.319 431.844 630.118 433.787 628.144 434.216C620.707 435.902 613.127 437.216 605.433 438.073C595.737 439.159 586.097 439.531 576.372 439.274C574.37 439.216 572.797 437.559 572.854 435.559C572.911 433.558 574.541 431.987 576.544 432.044C585.926 432.301 595.336 431.929 604.632 430.872C612.098 430.015 619.392 428.757 626.542 427.157ZM561.527 431.015C563.501 431.215 564.959 432.987 564.759 434.987C564.559 436.959 562.786 438.416 560.783 438.216C554.92 437.616 549.142 436.759 543.364 435.644C541.39 435.273 540.103 433.358 540.503 431.415C540.875 429.443 542.763 428.157 544.737 428.529C550.286 429.586 555.892 430.415 561.527 431.015ZM511.585 419.099C513.445 419.813 514.417 421.899 513.673 423.785C512.987 425.671 510.87 426.614 509.04 425.871C469.853 410.926 436.473 384.349 413.047 350.343C390.307 317.309 376.978 277.302 376.978 234.208C376.978 225.549 377.521 217.005 378.551 208.604C379.638 200.059 381.24 191.658 383.299 183.485C383.785 181.542 385.759 180.37 387.733 180.856C389.678 181.341 390.822 183.313 390.336 185.256C388.305 193.144 386.76 201.231 385.759 209.489C384.729 217.577 384.214 225.835 384.214 234.208C384.214 275.816 397.029 314.394 418.968 346.228C441.593 379.006 473.8 404.667 511.585 419.099ZM429.265 108.557C427.978 110.1 425.689 110.329 424.173 109.043C422.629 107.785 422.4 105.499 423.687 103.956C424.688 102.756 425.661 101.584 426.576 100.527C427.663 99.2413 428.664 98.1268 429.522 97.1552C430.867 95.6692 433.155 95.5549 434.642 96.898C436.13 98.2411 436.273 100.527 434.9 102.013C433.813 103.242 432.869 104.328 432.039 105.271C431.067 106.385 430.152 107.5 429.265 108.557ZM749.251 102.842C748.021 101.27 748.278 98.9841 749.852 97.7553C751.425 96.5265 753.713 96.7837 754.943 98.3554C768.558 115.615 779.656 134.99 787.665 155.908C795.417 176.169 800.222 197.887 801.624 220.549C801.738 222.549 800.194 224.263 798.22 224.378C796.218 224.492 794.502 222.978 794.387 220.977C793.043 199.116 788.38 178.112 780.886 158.509C773.163 138.277 762.437 119.53 749.251 102.842ZM778.741 315.337C779.485 313.48 781.602 312.594 783.432 313.337C785.291 314.08 786.178 316.194 785.434 318.052C785.263 318.509 785.034 318.938 784.862 319.366C784.119 321.224 782.03 322.11 780.171 321.367C778.341 320.624 777.425 318.509 778.198 316.652L778.741 315.337ZM773.507 326.939C774.365 325.139 776.539 324.396 778.341 325.282C780.143 326.168 780.886 328.311 780.028 330.111C773.707 343.028 766.156 355.259 757.575 366.632C748.879 378.063 739.097 388.636 728.399 398.18C726.912 399.524 724.595 399.381 723.279 397.895C721.963 396.409 722.078 394.123 723.594 392.78C733.948 383.578 743.387 373.347 751.768 362.288C760.12 351.286 767.414 339.456 773.507 326.939ZM510.47 434.044C512.358 434.701 513.33 436.787 512.672 438.673C511.986 440.56 509.926 441.531 508.039 440.845C465.048 425.414 428.264 397.009 402.463 360.317C377.35 324.624 362.562 281.131 362.562 234.208C362.562 222.406 363.506 210.747 365.336 199.345C367.224 187.686 369.97 176.369 373.545 165.481C374.175 163.567 376.234 162.538 378.122 163.167C380.038 163.795 381.068 165.853 380.439 167.739C376.949 178.341 374.26 189.286 372.458 200.488C370.685 211.433 369.798 222.692 369.798 234.208C369.798 279.616 384.071 321.681 408.327 356.173C433.355 391.636 468.938 419.127 510.47 434.044ZM410.644 109.1C409.471 110.7 407.183 111.072 405.581 109.871C403.979 108.7 403.608 106.414 404.809 104.813C405.867 103.356 407.011 101.841 408.213 100.27C409.385 98.7841 410.558 97.2981 411.76 95.8121C413.018 94.269 415.306 94.0404 416.822 95.2977C418.395 96.5551 418.624 98.8412 417.366 100.384C416.222 101.784 415.078 103.242 413.962 104.699C412.875 106.071 411.76 107.557 410.644 109.1ZM756.831 89.3253C755.544 87.7821 755.773 85.5245 757.289 84.2386C758.833 82.9527 761.121 83.1813 762.38 84.6958C777.626 103.013 790.125 123.645 799.25 146.021C808.86 169.568 814.438 194.801 816.04 220.034C816.154 222.035 814.638 223.749 812.636 223.863C810.634 223.978 808.918 222.463 808.803 220.463C807.23 195.687 801.996 171.883 792.528 148.736C783.69 127.046 771.619 107.042 756.831 89.3253ZM800.423 296.905C800.966 294.991 802.968 293.876 804.885 294.419C806.83 294.962 807.945 296.991 807.373 298.906C807.201 299.477 807.001 300.134 806.772 300.934V300.963L806.2 302.935C805.628 304.849 803.626 305.935 801.652 305.364C799.736 304.792 798.62 302.763 799.221 300.849L799.822 298.877C800.022 298.277 800.222 297.648 800.423 296.905ZM794.101 315.68C794.816 313.822 796.933 312.879 798.792 313.622C800.651 314.337 801.595 316.451 800.852 318.309C794.673 334.283 786.836 349.4 777.511 363.431C768.072 377.634 757.117 390.751 744.875 402.553C743.416 403.953 741.156 403.896 739.755 402.438C738.382 401.01 738.41 398.723 739.869 397.323C751.711 385.893 762.351 373.176 771.504 359.402C780.543 345.8 788.123 331.14 794.101 315.68ZM464.047 427.7C465.791 428.729 466.306 430.958 465.276 432.672C464.218 434.358 461.987 434.901 460.299 433.873C426.09 412.955 397.629 383.492 377.95 348.457C358.986 314.651 348.174 275.673 348.174 234.18C348.174 223.035 348.946 212.033 350.491 201.231C352.036 190.257 354.352 179.513 357.384 169.025C357.928 167.11 359.93 165.996 361.847 166.567C363.763 167.11 364.879 169.139 364.306 171.054C361.389 181.141 359.129 191.572 357.642 202.231C356.183 212.633 355.411 223.292 355.411 234.18C355.411 274.415 365.88 312.165 384.272 344.914C403.35 378.863 430.924 407.411 464.047 427.7ZM389.535 114.587C388.505 116.273 386.245 116.816 384.558 115.758C382.87 114.701 382.327 112.472 383.385 110.757C384.729 108.643 386.16 106.414 387.676 104.128C389.106 101.984 390.622 99.8414 392.138 97.7267C393.31 96.0979 395.541 95.7264 397.172 96.898C398.774 98.0697 399.145 100.327 397.973 101.956C396.543 103.985 395.112 106.071 393.711 108.185C392.338 110.186 390.965 112.3 389.535 114.587ZM763.267 74.7226C761.98 73.2366 762.094 70.9505 763.553 69.6074C765.04 68.2643 767.328 68.4072 768.644 69.8932C792.328 96.498 810.548 129.532 820.645 163.624C821.217 165.539 820.102 167.568 818.185 168.111C816.269 168.682 814.238 167.568 813.694 165.653C803.826 132.247 786.464 100.813 763.267 74.7226ZM811.492 309.736C812.15 307.85 814.181 306.793 816.097 307.421C817.985 308.05 819.043 310.108 818.385 311.994C811.749 332.054 802.282 351.772 790.726 369.461C782.374 382.292 772.849 394.294 762.38 405.325C761.007 406.782 758.719 406.839 757.231 405.468C755.773 404.096 755.744 401.781 757.145 400.352C767.328 389.636 776.567 377.977 784.662 365.546C796.161 347.943 804.942 329.682 811.492 309.736ZM448.2 434.644C449.859 435.759 450.288 438.016 449.173 439.645C448.057 441.303 445.826 441.76 444.139 440.645C410.244 417.956 382.241 387.15 362.934 351.029C344.313 316.194 333.758 276.416 333.758 234.208C333.758 221.692 334.702 209.375 336.504 197.316C338.306 185.056 341.052 173.054 344.627 161.366C345.199 159.452 347.259 158.366 349.147 158.966C351.034 159.538 352.121 161.567 351.549 163.481C348.117 174.74 345.457 186.4 343.683 198.373C341.91 210.061 341.023 222.006 341.023 234.208C341.023 275.244 351.263 313.851 369.341 347.629C388.076 382.692 415.278 412.612 448.2 434.644ZM361.532 136.791C360.731 138.62 358.586 139.448 356.755 138.648C354.925 137.848 354.095 135.705 354.896 133.876C356.612 130.018 358.443 126.16 360.359 122.302C362.304 118.444 364.335 114.701 366.395 111.1C367.367 109.357 369.598 108.757 371.343 109.757C373.088 110.757 373.688 112.958 372.687 114.701C370.628 118.33 368.654 121.959 366.852 125.56C364.993 129.218 363.22 132.961 361.532 136.791ZM770.732 61.4631C769.359 60.0057 769.474 57.691 770.932 56.3479C772.391 55.0048 774.708 55.0905 776.052 56.5479C786.893 68.35 796.675 81.1523 805.256 94.8119C813.752 108.328 821.046 122.674 826.966 137.648C827.71 139.505 826.823 141.62 824.936 142.363C823.076 143.106 820.96 142.192 820.245 140.334C814.467 125.732 807.373 111.786 799.164 98.6984C790.812 85.4388 781.287 72.9795 770.732 61.4631ZM822.104 323.138C822.79 321.281 824.878 320.309 826.766 321.024C828.625 321.71 829.569 323.796 828.854 325.682C827.596 329.111 826.28 332.454 824.878 335.798C824.106 337.655 821.989 338.513 820.13 337.741C818.271 336.969 817.413 334.855 818.185 332.997C818.872 331.34 819.558 329.711 820.159 328.111H820.187C820.931 326.253 821.589 324.596 822.104 323.138ZM812.036 346.543C812.922 344.742 815.067 343.999 816.869 344.885C818.671 345.771 819.415 347.914 818.528 349.715C814.924 357.059 811.006 364.203 806.801 371.061C802.539 378.034 797.991 384.75 793.186 391.208C791.984 392.808 789.696 393.151 788.094 391.951C786.493 390.751 786.149 388.493 787.351 386.864C792.099 380.52 796.532 374.005 800.623 367.289C804.77 360.545 808.575 353.63 812.036 346.543ZM782.145 393.608C783.404 392.065 785.663 391.808 787.236 393.037C788.781 394.266 789.01 396.552 787.78 398.123L787.465 398.495C786.836 399.324 786.121 400.209 785.863 400.524C784.576 402.067 782.317 402.296 780.772 401.01C779.227 399.752 778.999 397.466 780.286 395.923C781.087 394.923 781.459 394.466 781.859 393.98L782.145 393.608ZM774.136 403.124C775.48 401.638 777.769 401.495 779.256 402.81C780.743 404.124 780.886 406.411 779.571 407.897L779.256 408.239C778.77 408.811 778.226 409.383 777.626 410.068C776.281 411.554 773.993 411.669 772.506 410.326C771.018 408.982 770.875 406.696 772.22 405.21C772.677 404.725 773.249 404.067 773.793 403.439H773.821L774.136 403.124ZM420.169 431.758C421.713 433.015 421.914 435.301 420.655 436.845C419.397 438.388 417.108 438.616 415.564 437.33C414.877 436.759 414.019 436.044 412.99 435.159C411.903 434.244 411.016 433.473 410.387 432.987C408.928 431.672 408.728 429.386 410.015 427.872C411.359 426.357 413.619 426.186 415.135 427.5C416.222 428.443 417.023 429.129 417.623 429.643C418.253 430.186 419.139 430.901 420.169 431.758ZM397.658 410.926C399.031 412.354 399.002 414.641 397.572 416.041C396.142 417.413 393.825 417.384 392.481 415.955C388.791 412.097 385.216 408.182 381.812 404.153C378.437 400.181 375.119 396.037 371.915 391.751C370.714 390.15 371.057 387.893 372.659 386.693C374.232 385.493 376.52 385.807 377.721 387.407C380.753 391.465 383.986 395.494 387.361 399.466C390.679 403.41 394.111 407.211 397.658 410.926ZM360.617 361.602C361.589 363.317 360.988 365.546 359.301 366.546C357.527 367.546 355.325 366.946 354.324 365.203C343.026 345.6 334.187 324.424 328.209 302.078C322.431 280.416 319.342 257.641 319.342 234.208C319.342 219.577 320.543 205.203 322.86 191.172C325.234 176.826 328.752 162.881 333.358 149.45C334.015 147.564 336.046 146.535 337.934 147.192C339.822 147.85 340.88 149.879 340.194 151.793C335.732 164.881 332.299 178.455 330.011 192.372C327.751 205.974 326.579 219.948 326.579 234.265C326.579 257.127 329.582 279.245 335.217 300.277C341.023 321.967 349.604 342.57 360.617 361.602ZM778.541 48.7179C777.168 47.2605 777.254 44.9744 778.684 43.6027C780.143 42.2311 782.431 42.2882 783.775 43.7456C806.915 68.15 825.651 96.7551 838.694 128.303C851.308 158.737 858.659 191.915 859.574 226.692C859.631 228.693 858.03 230.35 856.085 230.379C854.083 230.436 852.424 228.836 852.338 226.864C851.451 193.029 844.3 160.709 832.029 131.075C819.272 100.327 801.052 72.4936 778.541 48.7179ZM834.232 331.797C834.947 329.94 837.035 329.025 838.894 329.74C840.782 330.454 841.697 332.54 840.953 334.426C840.01 336.912 838.98 339.427 837.893 341.97C836.863 344.457 835.748 346.914 834.661 349.343C833.831 351.144 831.686 351.944 829.855 351.115C828.053 350.286 827.252 348.143 828.082 346.314C829.198 343.914 830.227 341.513 831.228 339.141C832.258 336.741 833.259 334.283 834.232 331.797ZM820.645 361.345C821.589 359.574 823.791 358.916 825.508 359.859C827.281 360.802 827.968 363.003 827.024 364.746C822.705 372.776 818.071 380.549 813.037 388.036C808.002 395.58 802.596 402.839 796.847 409.84C795.589 411.383 793.3 411.611 791.756 410.326C790.211 409.068 789.982 406.782 791.269 405.239C796.876 398.438 802.139 391.351 807.058 384.007C811.892 376.691 816.469 369.118 820.645 361.345ZM337.448 348.257C338.306 350.058 337.505 352.201 335.703 353.058C333.872 353.887 331.727 353.115 330.898 351.315L330.469 350.4C330.011 349.429 329.525 348.457 329.382 348.114C328.552 346.285 329.382 344.142 331.212 343.314C333.043 342.485 335.188 343.314 336.018 345.142C336.533 346.314 336.79 346.828 337.047 347.371L337.448 348.257ZM329.611 329.654C330.297 331.54 329.353 333.626 327.494 334.312C325.635 335.026 323.547 334.083 322.832 332.197C316.996 316.794 312.477 300.706 309.445 284.074C306.499 267.843 304.954 251.154 304.954 234.18C304.954 219.12 306.184 204.288 308.501 189.8C310.904 175.026 314.479 160.623 319.085 146.707C319.714 144.821 321.745 143.792 323.661 144.421C325.52 145.049 326.55 147.078 325.921 148.993C321.43 162.538 317.969 176.541 315.652 190.972C313.364 205.003 312.191 219.434 312.191 234.208C312.191 250.868 313.678 267.1 316.539 282.817C319.485 298.963 323.89 314.623 329.611 329.654ZM329.096 139.963C328.438 141.82 326.321 142.792 324.462 142.077C322.603 141.391 321.659 139.305 322.317 137.419C322.717 136.333 323.118 135.333 323.461 134.39L323.547 134.219C323.947 133.161 324.319 132.218 324.634 131.418C325.377 129.561 327.465 128.646 329.325 129.389C331.212 130.132 332.099 132.218 331.355 134.076C330.955 135.076 330.583 136.019 330.268 136.819L330.211 137.019C329.839 138.077 329.439 139.048 329.096 139.963ZM789.954 39.8306C788.552 38.3732 788.638 36.0871 790.097 34.7154C791.555 33.3437 793.844 33.4295 795.245 34.8583C809.776 50.3754 822.676 67.4642 833.545 85.8675C844.329 104.013 853.167 123.417 859.803 143.82C860.432 145.706 859.374 147.764 857.486 148.393C855.541 149.021 853.51 147.964 852.91 146.078C846.445 126.189 837.807 107.271 827.31 89.5539C816.669 71.6363 804.112 54.9476 789.954 39.8306ZM862.063 182.056C861.691 180.084 863.007 178.198 864.952 177.855C866.897 177.484 868.813 178.798 869.156 180.77C870.787 189.486 872.017 198.345 872.846 207.346C873.647 216.291 874.076 225.235 874.076 234.208C874.076 234.522 874.048 235.608 874.048 237.209C874.019 238.266 874.019 239.238 873.99 240.181C873.962 242.181 872.303 243.753 870.301 243.724C868.298 243.696 866.725 242.038 866.754 240.038C866.782 239.009 866.811 238.037 866.811 237.123C866.811 236.751 866.811 235.866 866.811 234.208C866.811 225.264 866.411 216.548 865.638 208.003C864.866 199.23 863.636 190.572 862.063 182.056ZM845.931 341.285C846.703 339.427 848.819 338.541 850.679 339.284C852.538 340.027 853.425 342.142 852.681 343.999C851.308 347.371 849.849 350.715 848.333 354.058C846.789 357.487 845.244 360.774 843.642 363.974C842.756 365.775 840.582 366.489 838.808 365.603C836.978 364.717 836.263 362.546 837.149 360.745C838.78 357.487 840.324 354.258 841.754 351.086C843.185 347.914 844.586 344.628 845.931 341.285ZM822.018 387.436C823.076 385.75 825.336 385.264 827.024 386.35C828.683 387.436 829.226 389.665 828.111 391.351C823.963 397.809 819.501 404.153 814.81 410.354C810.062 416.555 805.113 422.556 799.965 428.357C798.62 429.843 796.332 429.958 794.873 428.643C793.357 427.329 793.243 425.042 794.559 423.556C799.65 417.898 804.484 412.04 809.061 406.01C813.58 400.038 817.871 393.865 822.018 387.436ZM787.179 431.472C788.552 430.043 790.84 430.015 792.271 431.415C793.701 432.815 793.729 435.101 792.328 436.53C791.298 437.588 790.268 438.674 789.239 439.731C787.808 441.16 785.549 441.16 784.09 439.759C782.66 438.359 782.66 436.073 784.061 434.644C785.148 433.587 786.149 432.53 787.179 431.472ZM313.936 328.768C314.622 330.654 313.621 332.712 311.733 333.397C309.846 334.055 307.786 333.083 307.1 331.168C301.694 315.823 297.489 299.877 294.686 283.474C291.997 267.443 290.538 250.983 290.538 234.208C290.538 219.177 291.682 204.403 293.885 189.972C296.116 175.255 299.491 160.852 303.867 146.907C304.468 144.992 306.499 143.935 308.415 144.535C310.303 145.135 311.39 147.164 310.818 149.079C306.556 162.652 303.267 176.684 301.064 191.058C298.919 205.117 297.803 219.548 297.803 234.208C297.803 250.611 299.176 266.671 301.865 282.274C304.583 298.248 308.644 313.794 313.936 328.768ZM802.854 32.5722C801.481 31.1148 801.595 28.8286 803.054 27.4855C804.541 26.1424 806.83 26.2282 808.174 27.7142C813.494 33.5438 818.586 39.5449 823.448 45.7174C835.061 60.5201 846.874 79.0091 855.312 95.6121C860.146 105.071 864.494 114.844 868.327 124.874C869.042 126.732 868.098 128.846 866.239 129.561C864.38 130.275 862.292 129.332 861.577 127.475C857.829 117.701 853.596 108.157 848.877 98.8984C839.523 80.5808 830.285 66.1497 817.756 50.1754C813.008 44.0885 808.031 38.2018 802.854 32.5722ZM877.394 186.142C877.08 184.171 878.424 182.313 880.398 181.999C882.371 181.684 884.231 183.027 884.545 184.999C884.831 186.8 885.117 188.571 885.375 190.372C885.689 192.343 884.288 194.201 882.314 194.458C880.34 194.744 878.51 193.372 878.224 191.372C877.909 189.629 877.68 187.885 877.394 186.142ZM879.282 199.859C879.053 197.859 880.483 196.058 882.486 195.858C884.459 195.63 886.261 197.059 886.49 199.059C887.119 204.803 887.663 210.69 887.978 216.634C888.321 222.549 888.521 228.407 888.521 234.208C888.521 236.494 888.492 239.123 888.378 242.095C888.321 244.839 888.206 247.468 888.063 249.982C887.977 251.983 886.261 253.497 884.288 253.412C882.285 253.297 880.741 251.611 880.855 249.611C880.97 246.953 881.084 244.381 881.113 241.924C881.17 239.695 881.227 237.123 881.227 234.18C881.227 228.321 881.055 222.577 880.712 217.005C880.455 211.318 879.911 205.574 879.282 199.859ZM858.602 348.457C859.374 346.6 861.491 345.714 863.321 346.485C865.152 347.257 866.067 349.372 865.324 351.201L865.266 351.344C864.494 353.201 862.378 354.087 860.518 353.315C858.659 352.544 857.772 350.429 858.545 348.6L858.602 348.457ZM849.62 368.032C850.507 366.26 852.681 365.518 854.454 366.403C856.228 367.289 856.971 369.461 856.085 371.261C855.398 372.633 854.683 373.976 854.397 374.633C853.453 376.405 851.308 377.12 849.506 376.205C847.733 375.291 847.046 373.119 847.933 371.319C848.734 369.747 849.191 368.89 849.62 368.032ZM821.303 413.64C822.504 412.04 824.764 411.726 826.366 412.926C827.968 414.126 828.254 416.384 827.052 417.984C821.961 424.785 816.612 431.301 811.034 437.53C805.485 443.789 799.65 449.818 793.558 455.648C792.099 457.02 789.811 456.963 788.409 455.534C787.036 454.076 787.122 451.79 788.552 450.418C794.444 444.789 800.165 438.874 805.657 432.73C811.206 426.5 816.412 420.127 821.303 413.64ZM297.517 325.253C298.147 327.139 297.088 329.197 295.172 329.797C293.284 330.397 291.225 329.34 290.624 327.453C285.847 312.594 282.215 297.22 279.755 281.474C277.352 266.014 276.094 250.24 276.094 234.208C276.094 216.662 277.581 199.402 280.441 182.599C283.359 165.424 287.735 148.707 293.399 132.618C294.056 130.732 296.116 129.732 298.004 130.389C299.892 131.047 300.893 133.104 300.235 134.99C294.686 150.679 290.452 166.996 287.592 183.77C284.789 200.116 283.33 216.976 283.33 234.18C283.33 249.954 284.56 265.357 286.877 280.331C289.308 295.733 292.884 310.736 297.517 325.253ZM814.924 24.4564C813.58 22.9705 813.695 20.6843 815.182 19.3698C816.641 18.0267 818.929 18.141 820.273 19.627C823.448 23.1419 826.423 26.5711 829.226 29.9431C832.029 33.3152 834.861 36.9158 837.75 40.7165C838.951 42.3168 838.637 44.5743 837.063 45.7745C835.49 46.9748 833.202 46.6604 832.001 45.0887C829.398 41.6881 826.623 38.1732 823.62 34.5725C820.674 30.9719 817.785 27.5999 814.924 24.4564ZM849.22 70.1218C848.162 68.4358 848.676 66.2068 850.393 65.1495C852.08 64.0921 854.283 64.6351 855.37 66.3211C858.144 70.8076 860.776 75.3513 863.321 79.9235C864.294 81.6667 863.693 83.8671 861.92 84.8387C860.175 85.8103 857.944 85.1816 857 83.4385C854.483 78.8948 851.995 74.6083 849.22 70.1218ZM895.529 243.381C895.557 241.381 897.274 239.809 899.219 239.866C901.221 239.923 902.823 241.581 902.708 243.581C902.651 246.525 902.537 249.382 902.365 252.126C902.193 255.098 901.993 257.927 901.793 260.613C901.65 262.613 899.905 264.099 897.903 263.956C895.929 263.785 894.413 262.07 894.585 260.07C894.814 257.155 895.014 254.383 895.157 251.754C895.328 248.839 895.443 246.067 895.529 243.381ZM861.004 377.463C861.92 375.691 864.122 374.976 865.896 375.891C867.698 376.805 868.356 378.977 867.469 380.777C866.496 382.635 865.524 384.407 864.609 386.15C863.836 387.607 862.864 389.379 861.691 391.465C860.69 393.208 858.487 393.808 856.714 392.837C854.998 391.865 854.369 389.665 855.37 387.922C856.171 386.521 857.115 384.778 858.23 382.721C859.203 380.892 860.118 379.149 861.004 377.463ZM815.582 443.246C816.927 441.76 819.215 441.617 820.674 442.96C822.161 444.303 822.275 446.589 820.96 448.047C819.272 449.933 817.728 451.619 816.269 453.162C814.696 454.791 813.094 456.477 811.463 458.134C810.09 459.563 807.802 459.592 806.372 458.22C804.942 456.82 804.913 454.533 806.286 453.105C807.859 451.504 809.433 449.876 811.006 448.189C812.665 446.418 814.181 444.76 815.582 443.246ZM281.07 320.595C281.643 322.538 280.498 324.539 278.582 325.082C276.666 325.625 274.635 324.51 274.091 322.595C270.03 308.45 266.912 293.847 264.824 278.93C262.793 264.299 261.735 249.354 261.735 234.237C261.735 217.119 263.079 200.288 265.71 183.828C268.371 166.996 272.346 150.65 277.495 134.847C278.124 132.933 280.184 131.904 282.1 132.533C283.988 133.161 285.046 135.19 284.446 137.105C279.354 152.593 275.464 168.596 272.861 184.999C270.316 201.002 269 217.462 269 234.294C269 249.182 270.058 263.756 272.032 278.016C274.034 292.447 277.066 306.707 281.07 320.595ZM287.564 127.76C286.877 129.646 284.789 130.618 282.901 129.932C281.013 129.246 280.041 127.16 280.756 125.303C281.557 123.074 282.415 120.788 283.302 118.444C284.188 116.158 285.075 113.901 286.019 111.672C286.791 109.814 288.908 108.928 290.767 109.7C292.598 110.472 293.456 112.558 292.741 114.415C291.825 116.644 290.91 118.845 290.081 121.045C289.251 123.217 288.393 125.446 287.564 127.76ZM827.052 16.4264C825.737 14.9404 825.851 12.6543 827.338 11.3112C828.826 9.96809 831.114 10.111 832.487 11.597C837.664 17.4266 842.67 23.4563 847.447 29.6288C848.676 31.2005 848.39 33.4866 846.789 34.6868C845.216 35.9156 842.927 35.6299 841.726 34.0296C837.035 27.9999 832.144 22.1417 827.052 16.4264ZM904.768 293.162C905.111 291.19 906.999 289.875 908.944 290.247C910.917 290.59 912.233 292.476 911.89 294.448C911.661 295.591 911.633 295.848 911.575 296.105L911.404 297.019C911.032 298.991 909.144 300.277 907.142 299.906C905.168 299.534 903.91 297.62 904.282 295.676L904.482 294.733L904.768 293.162ZM267.856 326.825C268.456 328.739 267.341 330.768 265.424 331.311C263.479 331.883 261.477 330.768 260.934 328.854C256.472 313.68 253.039 298.048 250.751 282.074C248.491 266.414 247.318 250.411 247.318 234.18C247.318 216.719 248.663 199.488 251.294 182.656C253.955 165.481 257.902 148.764 263.079 132.561C263.708 130.675 265.739 129.618 267.656 130.218C269.515 130.818 270.602 132.847 270.001 134.762C264.938 150.622 261.048 166.996 258.445 183.799C255.9 200.173 254.584 217.005 254.584 234.237C254.584 250.182 255.728 265.814 257.902 281.102C260.161 296.705 263.479 311.994 267.856 326.825ZM272.947 125.817C272.289 127.703 270.201 128.703 268.342 128.046C266.454 127.389 265.453 125.331 266.111 123.445C268.542 116.558 271.145 109.786 273.977 103.185C276.809 96.5265 279.841 89.9825 283.073 83.5528C283.959 81.781 286.162 81.038 287.935 81.9525C289.709 82.8384 290.424 85.0387 289.537 86.8105C286.362 93.0973 283.387 99.4985 280.613 106.014C277.867 112.558 275.293 119.159 272.947 125.817ZM837.407 6.36743C836.091 4.88144 836.205 2.59533 837.693 1.25223C839.18 -0.0908708 841.468 0.0520123 842.784 1.538C848.419 7.82484 853.854 14.3403 859.002 21.0273C860.232 22.599 859.946 24.8851 858.344 26.1139C856.8 27.3427 854.512 27.0283 853.31 25.4566C848.219 18.9126 842.927 12.54 837.407 6.36743ZM899.133 363.46C899.905 361.631 901.993 360.717 903.852 361.488C905.712 362.231 906.598 364.346 905.826 366.203C903.452 372.062 900.563 378.606 897.846 384.292C896.988 386.093 894.814 386.864 893.012 386.007C891.21 385.15 890.437 382.978 891.324 381.177C894.327 374.805 896.53 369.918 899.133 363.46ZM254.241 331.568C254.841 333.483 253.726 335.512 251.809 336.055C249.864 336.627 247.862 335.512 247.318 333.597C242.57 317.652 238.966 301.249 236.535 284.474C234.161 268.014 232.902 251.24 232.902 234.18C232.902 215.433 234.39 197.001 237.279 178.941C240.225 160.509 244.573 142.592 250.265 125.303C250.894 123.417 252.953 122.359 254.87 122.988C256.758 123.617 257.787 125.646 257.158 127.56C251.58 144.563 247.29 162.109 244.458 180.084C241.655 197.659 240.168 215.719 240.168 234.18C240.168 250.954 241.398 267.386 243.714 283.446C246.06 299.906 249.635 315.994 254.241 331.568ZM265.796 104.156C265.053 106.014 262.936 106.871 261.077 106.128C259.246 105.356 258.331 103.242 259.103 101.413C261.506 95.5835 264.052 89.8682 266.683 84.2672C269.343 78.7233 272.146 73.2081 275.121 67.7214C276.065 65.9782 278.267 65.3209 280.012 66.2639C281.786 67.207 282.415 69.4074 281.442 71.1791C278.611 76.4372 275.836 81.8382 273.233 87.3534C270.602 92.8973 268.113 98.4983 265.796 104.156ZM242.628 342.771C243.257 344.657 242.17 346.714 240.282 347.314C238.394 347.914 236.335 346.857 235.734 344.971C230.071 327.311 225.752 309.05 222.834 290.361C220.002 272.015 218.486 253.269 218.486 234.237C218.486 206.86 221.547 180.141 227.296 154.422C233.246 127.989 242.055 102.642 253.411 78.7233C254.241 76.923 256.443 76.1514 258.245 77.0087C260.076 77.866 260.819 80.0093 259.99 81.8096C248.834 105.271 240.196 130.104 234.39 155.994C228.726 181.141 225.752 207.318 225.752 234.237C225.752 253.012 227.182 271.386 229.985 289.275C232.817 307.564 237.078 325.453 242.628 342.771ZM223.12 327.196C223.606 329.14 222.462 331.111 220.517 331.597C218.572 332.083 216.598 330.94 216.084 328.997C212.136 313.708 209.133 298.048 207.102 282.074C205.1 266.328 204.07 250.325 204.07 234.208C204.07 209.575 206.444 185.457 210.964 162.081C215.597 138.105 222.519 114.958 231.444 92.8116C232.216 90.9541 234.304 90.0682 236.163 90.8112C238.022 91.5542 238.938 93.6689 238.194 95.5263C229.413 117.216 222.662 139.934 218.086 163.453C213.652 186.314 211.335 209.975 211.335 234.208C211.335 250.182 212.337 265.871 214.282 281.188C216.255 296.819 219.23 312.194 223.12 327.196ZM202.24 298.134C202.583 300.106 201.238 301.963 199.265 302.306C197.291 302.62 195.403 301.306 195.117 299.334C193.315 288.618 191.942 277.787 191.056 266.871C190.169 256.069 189.711 245.182 189.711 234.18C189.711 213.89 191.256 193.972 194.231 174.483C197.263 154.594 201.81 135.19 207.731 116.387C208.332 114.472 210.363 113.415 212.279 114.015C214.167 114.615 215.254 116.644 214.653 118.559C208.876 136.991 204.413 156.051 201.41 175.569C198.492 194.658 196.976 214.233 196.976 234.18C196.976 245.01 197.434 255.698 198.321 266.271C199.179 277.073 200.495 287.704 202.24 298.134ZM186.822 292.79C187.108 294.762 185.735 296.619 183.762 296.905C181.788 297.191 179.929 295.819 179.671 293.847C178.213 284.046 177.154 274.13 176.411 264.099C175.667 254.183 175.295 244.21 175.295 234.18C175.295 213.719 176.811 193.572 179.757 173.883C182.761 153.822 187.223 134.19 193.058 115.101C193.63 113.186 195.661 112.1 197.549 112.701C199.436 113.272 200.552 115.301 199.98 117.216C194.231 135.876 189.826 155.165 186.908 174.94C184.048 194.258 182.532 214.033 182.532 234.18C182.532 244.124 182.904 253.926 183.59 263.585C184.334 273.415 185.392 283.16 186.822 292.79ZM172.893 297.277C173.179 299.248 171.806 301.106 169.861 301.392C167.858 301.677 165.999 300.334 165.713 298.334C164.111 287.846 162.881 277.187 162.052 266.385C161.251 255.726 160.822 244.953 160.822 234.151C160.822 215.376 162.08 196.801 164.483 178.57C166.943 159.966 170.633 141.763 175.41 124.074C175.896 122.131 177.898 120.988 179.843 121.502C181.788 122.017 182.932 124.017 182.417 125.932C177.698 143.392 174.065 161.281 171.663 179.484C169.317 197.316 168.087 215.548 168.087 234.122C168.087 244.81 168.516 255.383 169.289 265.814C170.118 276.444 171.319 286.903 172.893 297.277ZM157.275 289.818C157.533 291.79 156.131 293.619 154.129 293.847C152.155 294.105 150.353 292.676 150.096 290.704C148.866 281.331 147.95 271.929 147.35 262.47C146.749 253.04 146.434 243.581 146.434 234.151C146.434 214.89 147.693 195.858 150.153 177.141C152.699 158.052 156.417 139.391 161.28 121.245C161.794 119.302 163.768 118.159 165.713 118.673C167.658 119.187 168.802 121.188 168.287 123.102C163.482 141.02 159.792 159.395 157.332 178.084C154.93 196.373 153.7 215.09 153.7 234.151C153.7 243.581 153.986 252.869 154.586 262.013C155.216 271.443 156.131 280.702 157.275 289.818ZM147.121 317.48C147.521 319.452 146.177 321.338 144.261 321.71C142.287 322.081 140.399 320.795 140.027 318.823C136.967 302.563 134.535 284.36 133.277 267.929C132.447 256.755 132.018 245.524 132.018 234.237C132.018 216.148 133.105 198.259 135.193 180.713C137.31 162.91 140.485 145.364 144.661 128.132C145.119 126.189 147.092 124.989 149.037 125.474C150.982 125.96 152.184 127.903 151.697 129.847C147.636 146.678 144.518 163.938 142.401 181.57C140.342 198.83 139.312 216.405 139.312 234.265C139.312 245.496 139.741 256.555 140.542 267.471C142.058 287.989 144.175 301.563 147.121 317.48ZM135.308 331.511C135.737 333.483 134.478 335.398 132.533 335.826C130.56 336.255 128.672 334.998 128.243 333.055C124.782 317.023 122.093 300.649 120.348 283.989C118.575 267.586 117.659 250.983 117.659 234.208C117.659 225.521 117.945 216.748 118.403 207.975C118.889 199.116 119.662 190.343 120.605 181.713C120.834 179.713 122.636 178.284 124.61 178.512C126.612 178.741 128.042 180.513 127.814 182.513C126.87 191.115 126.126 199.716 125.64 208.375C125.182 216.834 124.925 225.435 124.925 234.208C124.925 250.811 125.811 267.157 127.556 283.217C129.244 299.563 131.875 315.68 135.308 331.511ZM120.491 331.197C120.892 333.169 119.633 335.055 117.688 335.484C115.714 335.884 113.798 334.626 113.397 332.683C110.88 320.681 108.821 308.479 107.219 296.048C105.646 283.789 104.53 271.415 103.901 258.927C103.758 256.927 105.331 255.241 107.333 255.126C109.307 255.04 111.023 256.555 111.109 258.555C111.738 270.9 112.854 283.103 114.399 295.133C115.972 307.278 118.003 319.281 120.491 331.197ZM110.537 227.721C110.508 229.722 108.878 231.322 106.876 231.293C104.874 231.265 103.272 229.636 103.3 227.636C103.329 226.35 103.329 225.092 103.358 223.892C103.386 222.577 103.415 221.349 103.443 220.148C103.501 218.148 105.16 216.576 107.162 216.634C109.136 216.691 110.737 218.348 110.68 220.349C110.651 221.634 110.623 222.892 110.594 224.035C110.566 225.321 110.537 226.55 110.537 227.721ZM112.797 187.428C112.568 189.429 110.823 190.857 108.849 190.686C106.847 190.486 105.388 188.714 105.589 186.742L105.875 183.942C105.989 182.685 106.104 181.713 106.132 181.113C106.361 179.113 108.163 177.684 110.137 177.912C112.139 178.141 113.569 179.913 113.34 181.913C113.226 183.142 113.14 184.056 113.083 184.656L112.797 187.428ZM109.851 349.315C110.308 351.258 109.107 353.201 107.162 353.687C105.217 354.144 103.272 352.972 102.786 351.029C99.1529 336.112 96.2354 320.938 93.9757 305.621C91.7446 290.475 90.2859 275.044 89.485 259.413C89.3705 257.412 90.9151 255.726 92.9174 255.641C94.9196 255.526 96.6072 257.069 96.7216 259.07C97.4939 274.387 98.9527 289.59 101.155 304.592C103.358 319.766 106.275 334.712 109.851 349.315ZM99.725 367.718C100.268 369.633 99.1529 371.633 97.2079 372.176C95.2915 372.719 93.2892 371.576 92.7458 369.661C87.969 352.429 84.0789 334.798 81.1614 316.88C78.2724 299.22 76.2702 281.274 75.2405 263.042C75.1261 261.042 76.6707 259.355 78.6729 259.241C80.6751 259.127 82.3627 260.67 82.5057 262.67C83.5354 280.616 85.4805 298.334 88.3408 315.737C91.2012 333.369 95.034 350.743 99.725 367.718ZM73.1524 312.136C73.4385 314.108 72.0941 315.966 70.0919 316.252C68.1182 316.537 66.259 315.166 65.973 313.194C64.8574 305.85 63.9135 298.391 63.084 290.761C62.2831 283.274 61.6253 275.758 61.139 268.186C61.0246 266.185 62.512 264.471 64.5142 264.356C66.5164 264.242 68.2612 265.757 68.347 267.728C68.8333 275.216 69.4912 282.645 70.2921 290.018C71.0644 297.362 72.0369 304.735 73.1524 312.136ZM582.322 229.407C579.661 229.407 577.545 231.551 577.545 234.208C577.545 236.866 579.69 238.98 582.322 238.98C584.953 238.98 587.098 236.837 587.098 234.208C587.098 231.551 584.953 229.407 582.322 229.407Z" fill="url(#paint0_linear_7044_4769)"></path> <path d="M69.1268 168.829C71.1004 169.001 72.8452 167.572 73.0741 165.571L73.3601 162.799C73.4173 162.199 73.5031 161.285 73.6175 160.056C73.8463 158.056 72.4162 156.284 70.4139 156.055C68.4403 155.827 66.6383 157.256 66.4095 159.256C66.3809 159.856 66.2664 160.828 66.152 162.085L65.866 164.886C65.6658 166.857 67.1246 168.629 69.1268 168.829Z" fill="url(#paint1_linear_7044_4769)"></path> <path d="M208.281 236.139C211.792 236.139 214.639 233.292 214.639 229.781C214.639 226.269 211.792 223.422 208.281 223.422C204.769 223.422 201.922 226.269 201.922 229.781C201.922 233.292 204.769 236.139 208.281 236.139Z" fill="#6AFF35"></path> <path d="M224.663 286.405C228.175 286.405 231.022 283.558 231.022 280.046C231.022 276.534 228.175 273.688 224.663 273.688C221.152 273.688 218.305 276.534 218.305 280.046C218.305 283.558 221.152 286.405 224.663 286.405Z" fill="#6AFF35"></path> <path d="M122.706 285.35C126.218 285.35 129.065 282.503 129.065 278.991C129.065 275.48 126.218 272.633 122.706 272.633C119.195 272.633 116.348 275.48 116.348 278.991C116.348 282.503 119.195 285.35 122.706 285.35Z" fill="#6AFF35"></path> <path d="M63.7727 273.694C67.2845 273.694 70.1314 270.847 70.1314 267.335C70.1314 263.823 67.2845 260.977 63.7727 260.977C60.2609 260.977 57.4141 263.823 57.4141 267.335C57.4141 270.847 60.2609 273.694 63.7727 273.694Z" fill="#6AFF35"></path> <path d="M95.6868 308.428C99.1986 308.428 102.045 305.581 102.045 302.07C102.045 298.558 99.1986 295.711 95.6868 295.711C92.175 295.711 89.3281 298.558 89.3281 302.07C89.3281 305.581 92.175 308.428 95.6868 308.428Z" fill="#6AFF35"></path> <path d="M156.031 167.014C159.542 167.014 162.389 164.167 162.389 160.656C162.389 157.144 159.542 154.297 156.031 154.297C152.519 154.297 149.672 157.144 149.672 160.656C149.672 164.167 152.519 167.014 156.031 167.014Z" fill="#6AFF35"></path> <path d="M291.359 316.717C294.87 316.717 297.717 313.87 297.717 310.359C297.717 306.847 294.87 304 291.359 304C287.847 304 285 306.847 285 310.359C285 313.87 287.847 316.717 291.359 316.717Z" fill="#6AFF35"></path> <path d="M96.3587 348.717C99.8705 348.717 102.717 345.87 102.717 342.359C102.717 338.847 99.8705 336 96.3587 336C92.8469 336 90 338.847 90 342.359C90 345.87 92.8469 348.717 96.3587 348.717Z" fill="#6AFF35"></path> <path d="M519.702 416.35C523.214 416.35 526.061 413.503 526.061 409.991C526.061 406.48 523.214 403.633 519.702 403.633C516.191 403.633 513.344 406.48 513.344 409.991C513.344 413.503 516.191 416.35 519.702 416.35Z" fill="#6AFF35"></path> <path d="M387.527 364.475C391.038 364.475 393.885 361.628 393.885 358.116C393.885 354.605 391.038 351.758 387.527 351.758C384.015 351.758 381.168 354.605 381.168 358.116C381.168 361.628 384.015 364.475 387.527 364.475Z" fill="#6AFF35"></path> <path d="M469.57 351.756C473.081 351.756 475.928 348.91 475.928 345.398C475.928 341.886 473.081 339.039 469.57 339.039C466.058 339.039 463.211 341.886 463.211 345.398C463.211 348.91 466.058 351.756 469.57 351.756Z" fill="#6AFF35"></path> <path d="M343.656 295.71C347.167 295.71 350.014 292.863 350.014 289.351C350.014 285.839 347.167 282.992 343.656 282.992C340.144 282.992 337.297 285.839 337.297 289.351C337.297 292.863 340.144 295.71 343.656 295.71Z" fill="#6AFF35"></path> <path d="M777.359 236.717C780.87 236.717 783.717 233.87 783.717 230.359C783.717 226.847 780.87 224 777.359 224C773.847 224 771 226.847 771 230.359C771 233.87 773.847 236.717 777.359 236.717Z" fill="#6AFF35"></path> <path d="M551.359 369.717C554.87 369.717 557.717 366.87 557.717 363.359C557.717 359.847 554.87 357 551.359 357C547.847 357 545 359.847 545 363.359C545 366.87 547.847 369.717 551.359 369.717Z" fill="#6AFF35"></path> <path d="M589.886 412.905C593.398 412.905 596.245 410.058 596.245 406.546C596.245 403.034 593.398 400.188 589.886 400.188C586.374 400.188 583.527 403.034 583.527 406.546C583.527 410.058 586.374 412.905 589.886 412.905Z" fill="#6AFF35"></path> <path d="M482.284 398.366C485.796 398.366 488.643 395.519 488.643 392.007C488.643 388.495 485.796 385.648 482.284 385.648C478.773 385.648 475.926 388.495 475.926 392.007C475.926 395.519 478.773 398.366 482.284 398.366Z" fill="#6AFF35"></path> <path d="M688.187 315.256C691.699 315.256 694.545 312.409 694.545 308.898C694.545 305.386 691.699 302.539 688.187 302.539C684.675 302.539 681.828 305.386 681.828 308.898C681.828 312.409 684.675 315.256 688.187 315.256Z" fill="#6AFF35"></path> <path d="M343.359 206.717C346.87 206.717 349.717 203.87 349.717 200.359C349.717 196.847 346.87 194 343.359 194C339.847 194 337 196.847 337 200.359C337 203.87 339.847 206.717 343.359 206.717Z" fill="#6AFF35"></path> <path d="M424.581 312.858C428.093 312.858 430.94 310.011 430.94 306.499C430.94 302.987 428.093 300.141 424.581 300.141C421.07 300.141 418.223 302.987 418.223 306.499C418.223 310.011 421.07 312.858 424.581 312.858Z" fill="#6AFF35"></path> <path d="M638.034 323.014C641.546 323.014 644.393 320.167 644.393 316.656C644.393 313.144 641.546 310.297 638.034 310.297C634.523 310.297 631.676 313.144 631.676 316.656C631.676 320.167 634.523 323.014 638.034 323.014Z" fill="#6AFF35"></path> <path d="M374.359 261.717C377.87 261.717 380.717 258.87 380.717 255.359C380.717 251.847 377.87 249 374.359 249C370.847 249 368 251.847 368 255.359C368 258.87 370.847 261.717 374.359 261.717Z" fill="#6AFF35"></path> <path d="M600.359 386.717C603.87 386.717 606.717 383.87 606.717 380.359C606.717 376.847 603.87 374 600.359 374C596.847 374 594 376.847 594 380.359C594 383.87 596.847 386.717 600.359 386.717Z" fill="#6AFF35"></path> <path d="M431.359 242.717C434.87 242.717 437.717 239.87 437.717 236.359C437.717 232.847 434.87 230 431.359 230C427.847 230 425 232.847 425 236.359C425 239.87 427.847 242.717 431.359 242.717Z" fill="#6AFF35"></path> <path d="M237.378 204.702C240.89 204.702 243.737 201.855 243.737 198.343C243.737 194.831 240.89 191.984 237.378 191.984C233.866 191.984 231.02 194.831 231.02 198.343C231.02 201.855 233.866 204.702 237.378 204.702Z" fill="#6AFF35"></path> <path d="M195.566 278.999C199.077 278.999 201.924 276.152 201.924 272.64C201.924 269.128 199.077 266.281 195.566 266.281C192.054 266.281 189.207 269.128 189.207 272.64C189.207 276.152 192.054 278.999 195.566 278.999Z" fill="#6AFF35"></path> <path d="M198.006 185.152C202.322 185.152 205.82 181.654 205.82 177.338C205.82 173.022 202.322 169.523 198.006 169.523C193.69 169.523 190.191 173.022 190.191 177.338C190.191 181.654 193.69 185.152 198.006 185.152Z" fill="#6AFF35"></path> <path d="M280.573 262.147C284.756 262.147 288.147 258.756 288.147 254.573C288.147 250.391 284.756 247 280.573 247C276.391 247 273 250.391 273 254.573C273 258.756 276.391 262.147 280.573 262.147Z" fill="#6AFF35"></path> <path d="M158.979 261.623C162.901 261.623 166.08 258.444 166.08 254.522C166.08 250.601 162.901 247.422 158.979 247.422C155.058 247.422 151.879 250.601 151.879 254.522C151.879 258.444 155.058 261.623 158.979 261.623Z" fill="#6AFF35"></path> <defs> <linearGradient id="paint0_linear_7044_4769" x1="235.774" y1="-45.8371" x2="781.715" y2="500.616" gradientUnits="userSpaceOnUse"> <stop stop-color="#1ECFBB"></stop> <stop offset="0.911458" stop-color="#00BD13"></stop> </linearGradient> <linearGradient id="paint1_linear_7044_4769" x1="235.775" y1="-45.84" x2="781.715" y2="500.613" gradientUnits="userSpaceOnUse"> <stop stop-color="#1ECFBB"></stop> <stop offset="0.911458" stop-color="#00BD13"></stop> </linearGradient> </defs> </svg> 