<?xml version="1.0" encoding="UTF-8"?> <svg xmlns="http://www.w3.org/2000/svg" width="48" height="48" viewBox="0 0 48 48" fill="none"> <circle cx="24" cy="24" r="24" fill="white" fill-opacity="0.04"></circle> <path fill-rule="evenodd" clip-rule="evenodd" d="M19 14C17.3431 14 16 15.3431 16 17V30C16 31.6569 17.3431 33 19 33H23V26.4666C21.5564 26.2497 20.4495 25.0041 20.4495 23.5C20.4495 21.8431 21.7926 20.5 23.4495 20.5C24.4017 20.5 25.2503 20.9436 25.7998 21.6355C26.8722 21.216 28.1687 21 29.5 21C30.0086 21 30.5121 21.0315 31 21.0939V17C31 15.3431 29.6569 14 28 14H19ZM27 16C26.4477 16 26 16.4477 26 17C26 17.5523 26.4477 18 27 18H28C28.5523 18 29 17.5523 29 17C29 16.4477 28.5523 16 28 16H27ZM18 30C18 29.4477 18.4477 29 19 29H20C20.5523 29 21 29.4477 21 30C21 30.5523 20.5523 31 20 31H19C18.4477 31 18 30.5523 18 30Z" fill="#0AD26C"></path> <path d="M25 25C25 24.7091 25.23 24.2255 26.0898 23.7566C26.9117 23.3082 28.1156 23 29.5 23C30.8844 23 32.0883 23.3082 32.9102 23.7566C33.77 24.2255 34 24.7091 34 25C34 25.2909 33.77 25.7745 32.9102 26.2434C32.0883 26.6918 30.8844 27 29.5 27C28.1156 27 26.9117 26.6918 26.0898 26.2434C25.23 25.7745 25 25.2909 25 25Z" fill="#0AD26C"></path> <path d="M25 29V27.925C25.0438 27.9503 25.0878 27.9751 25.1321 27.9992C26.3007 28.6367 27.8469 29 29.5 29C31.1531 29 32.6993 28.6367 33.8679 27.9992C33.9122 27.9751 33.9562 27.9503 34 27.925V29C34 29.2909 33.77 29.7745 32.9102 30.2434C32.0883 30.6918 30.8844 31 29.5 31C28.1156 31 26.9117 30.6918 26.0898 30.2434C25.23 29.7745 25 29.2909 25 29Z" fill="#0AD26C"></path> <path d="M33.8679 31.9992C33.9122 31.9751 33.9562 31.9503 34 31.925V33C34 34.1046 31.9853 35 29.5 35C27.0147 35 25 34.1046 25 33V31.925C25.0438 31.9503 25.0878 31.9751 25.1321 31.9992C26.3007 32.6367 27.8469 33 29.5 33C31.1531 33 32.6993 32.6367 33.8679 31.9992Z" fill="#0AD26C"></path> </svg> 