<?xml version="1.0" encoding="UTF-8"?> <svg xmlns="http://www.w3.org/2000/svg" width="48" height="48" viewBox="0 0 48 48" fill="none"> <circle cx="24" cy="24" r="24" fill="white" fill-opacity="0.04"></circle> <path d="M24 26C26.7614 26 29 23.3137 29 20C29 16.6863 26.7614 14 24 14C21.2386 14 19 16.6863 19 20C19 23.3137 21.2386 26 24 26Z" fill="#0AD26C"></path> <path d="M33.8 31.0999C32.9 29.2999 31.2 27.7999 29 26.8999C28.4 26.6999 27.7 26.6999 27.2 26.9999C26.2 27.5999 25.2 27.8999 24 27.8999C22.8 27.8999 21.8 27.5999 20.8 26.9999C20.3 26.7999 19.6 26.6999 19 26.9999C16.8 27.8999 15.1 29.3999 14.2 31.1999C13.5 32.4999 14.6 33.9999 16.1 33.9999H31.9C33.4 33.9999 34.5 32.4999 33.8 31.0999Z" fill="#0AD26C"></path> </svg> 